<?xml version="1.0" standalone="no"?><!DOCTYPE svg PUBLIC "-//W3C//DTD SVG 1.1//EN" "http://www.w3.org/Graphics/SVG/1.1/DTD/svg11.dtd"><svg t="1727160973725" class="icon" viewBox="0 0 1024 1024" version="1.1" xmlns="http://www.w3.org/2000/svg" p-id="2212" xmlns:xlink="http://www.w3.org/1999/xlink" width="47" height="47"><path d="M512 1024a512 512 0 1 1 512-512 512 512 0 0 1-512 512z m0-960a448 448 0 1 0 448 448A448 448 0 0 0 512 64z m128 640a32 32 0 0 1-54.624 22.72l-192-192a32.224 32.224 0 0 1 0-45.44l192-192a32.064 32.064 0 0 1 45.248 45.44L461.248 512l169.376 169.28A32 32 0 0 1 640 704z" fill="#8A8A8A" p-id="2213"></path></svg>