<?xml version="1.0" standalone="no"?><!DOCTYPE svg PUBLIC "-//W3C//DTD SVG 1.1//EN" "http://www.w3.org/Graphics/SVG/1.1/DTD/svg11.dtd"><svg t="1715134490757" class="icon" viewBox="0 0 1024 1024" version="1.1" xmlns="http://www.w3.org/2000/svg" p-id="19801" xmlns:xlink="http://www.w3.org/1999/xlink" width="30" height="30"><path d="M863.856654 1023.830108v-63.989382a95.984073 95.984073 0 0 0 67.828744-28.155328 98.863595 98.863595 0 0 0 22.716231-35.834053H316.74744A159.973454 159.973454 0 0 1 0 863.856654V159.973454a159.973454 159.973454 0 0 1 159.973454-159.973454h703.8832a159.973454 159.973454 0 0 1 159.973454 159.973454v31.994691H255.957527V159.973454a95.984073 95.984073 0 0 0-28.155328-67.828744A95.984073 95.984073 0 0 0 159.973454 63.989382a95.984073 95.984073 0 0 0-95.984072 95.984072v703.8832a95.984073 95.984073 0 0 0 191.968145 0v-31.994691h767.872581v31.994691a159.973454 159.973454 0 0 1-159.973454 159.973454zM316.74744 127.978764h637.654189a95.984073 95.984073 0 0 0-22.716231-35.834054A95.984073 95.984073 0 0 0 863.856654 63.989382H287.952218a159.973454 159.973454 0 0 1 28.795222 63.989382z" p-id="19802" fill="#515151"></path><path d="M159.973454 959.840726h703.8832v63.989382H159.973454zM703.883199 863.856654V159.973454h63.989382v703.8832h-63.989382zM127.658817 287.952218h511.915054v63.989382h-511.915054zM127.658817 415.930981h511.915054v63.989382h-511.915054zM127.658817 543.909745H639.893818v63.989382H127.658817zM127.658817 671.888509h383.93629v63.989381h-383.93629z" p-id="19803" fill="#515151"></path></svg>